# Blender 4.1.1
# www.blender.org
mtllib weapon.mtl
o 円柱.001
v -0.199074 2.185041 -0.389402
v -0.049074 2.185041 -0.389402
v -0.199074 5.413621 -0.389402
v -0.199074 2.166333 0.279026
v -0.199074 4.316986 0.279026
v -0.049074 2.168810 0.407707
v 0.100926 2.171287 0.279026
v -0.049074 4.468293 0.407707
v 0.100926 4.321941 0.279026
v -0.049074 5.562452 -0.389402
v 0.100926 5.413621 -0.389402
v 0.100926 2.185041 -0.389402
v 0.091759 1.055940 -0.002255
v 0.091759 3.870564 -0.002255
v 0.089636 1.055940 0.014112
v 0.089636 3.870564 0.014112
v 0.083346 1.055940 0.029851
v 0.083346 3.870564 0.029851
v 0.073132 1.055940 0.044356
v 0.073132 3.870564 0.044356
v 0.059387 1.055940 0.057070
v 0.059387 3.870564 0.057070
v 0.042638 1.055940 0.067503
v 0.042638 3.870564 0.067503
v 0.023530 1.055940 0.075257
v 0.023530 3.870564 0.075257
v 0.002796 1.055940 0.080031
v 0.002796 3.870564 0.080031
v -0.018767 1.055940 0.081643
v -0.018767 3.870564 0.081643
v -0.040330 1.055940 0.080031
v -0.040330 3.870564 0.080031
v -0.061064 1.055940 0.075257
v -0.061064 3.870564 0.075257
v -0.080172 1.055940 0.067503
v -0.080172 3.870564 0.067503
v -0.096921 1.055940 0.057070
v -0.096921 3.870564 0.057070
v -0.110666 1.055940 0.044356
v -0.110666 3.870564 0.044356
v -0.120880 1.055940 0.029851
v -0.120880 3.870564 0.029851
v -0.127170 1.055940 0.014112
v -0.127170 3.870564 0.014112
v -0.129294 1.055940 -0.002255
v -0.129294 3.870564 -0.002255
v -0.127170 1.055940 -0.018623
v -0.127170 3.870564 -0.018623
v -0.120880 1.055940 -0.034362
v -0.120880 3.870564 -0.034362
v -0.110666 1.055940 -0.048867
v -0.110666 3.870564 -0.048867
v -0.096921 1.055940 -0.061581
v -0.096921 3.870564 -0.061581
v -0.080172 1.055940 -0.072014
v -0.080172 3.870564 -0.072014
v -0.061064 1.055940 -0.079767
v -0.061064 3.870564 -0.079767
v -0.040330 1.055940 -0.084542
v -0.040330 3.870564 -0.084542
v -0.018767 1.055940 -0.086154
v -0.018767 3.870564 -0.086154
v 0.002796 1.055940 -0.084542
v 0.002796 3.870564 -0.084542
v 0.023530 1.055940 -0.079767
v 0.023530 3.870564 -0.079767
v 0.042638 1.055940 -0.072014
v 0.042638 3.870564 -0.072014
v 0.059387 1.055940 -0.061581
v 0.059387 3.870564 -0.061581
v 0.073132 1.055940 -0.048867
v 0.073132 3.870564 -0.048867
v 0.083346 1.055940 -0.034362
v 0.083346 3.870564 -0.034362
v 0.089636 1.055940 -0.018623
v 0.089636 3.870564 -0.018623
v -0.239241 1.998278 -0.338251
v 0.139105 1.998278 -0.338251
v -0.361054 2.211994 -0.803856
v -0.239241 1.998278 0.349676
v 0.139105 1.998278 0.349676
v -0.361054 2.211994 0.815281
v 0.260918 2.211994 0.815281
v 0.260918 2.211994 -0.803856
vn -0.0000 -0.0000 -1.0000
vn -0.0000 -0.9996 -0.0280
vn -1.0000 -0.0000 -0.0000
vn -0.6511 -0.0000 0.7590
vn 0.6511 -0.0000 0.7590
vn -0.0000 -0.9998 -0.0206
vn -0.7827 0.3239 0.5315
vn 0.7787 0.3276 0.5351
vn 1.0000 -0.0000 -0.0000
vn 0.9917 -0.0000 0.1287
vn 0.9286 -0.0000 0.3711
vn 0.8176 -0.0000 0.5757
vn 0.6790 -0.0000 0.7341
vn 0.5288 -0.0000 0.8488
vn 0.3760 -0.0000 0.9266
vn 0.2244 -0.0000 0.9745
vn 0.0746 -0.0000 0.9972
vn -0.0746 -0.0000 0.9972
vn -0.2244 -0.0000 0.9745
vn -0.3760 -0.0000 0.9266
vn -0.5288 -0.0000 0.8488
vn -0.6790 -0.0000 0.7341
vn -0.8176 -0.0000 0.5757
vn -0.9286 -0.0000 0.3711
vn -0.9917 -0.0000 0.1287
vn -0.9917 -0.0000 -0.1287
vn -0.9286 -0.0000 -0.3711
vn -0.8176 -0.0000 -0.5757
vn -0.6790 -0.0000 -0.7341
vn -0.5288 -0.0000 -0.8488
vn -0.3760 -0.0000 -0.9266
vn -0.2244 -0.0000 -0.9745
vn -0.0746 -0.0000 -0.9972
vn 0.0746 -0.0000 -0.9972
vn 0.2244 -0.0000 -0.9745
vn 0.3760 -0.0000 -0.9266
vn 0.5288 -0.0000 -0.8488
vn 0.6790 -0.0000 -0.7341
vn 0.8176 -0.0000 -0.5757
vn -0.0000 1.0000 -0.0000
vn 0.9286 -0.0000 -0.3711
vn 0.9917 -0.0000 -0.1287
vn -0.0000 -1.0000 -0.0000
vn -0.0000 -0.9088 -0.4172
vn -0.8688 -0.4952 -0.0000
vn -0.0000 -0.9088 0.4172
vn 0.8688 -0.4952 -0.0000
vn 0.0340 -0.9992 -0.0203
vn -0.0010 -0.9998 -0.0204
vn -0.5045 0.5084 0.6979
vn 0.5045 0.5084 0.6979
vn -0.0000 1.0000 -0.0002
vn -0.0000 1.0000 0.0002
vt 0.290595 0.936743
vt 0.248214 0.140199
vt 0.263508 0.139679
vt 0.120030 0.006301
vt 0.097211 0.140210
vt 0.097545 0.006245
vt 0.097211 0.670926
vt 0.006245 0.144827
vt 0.119593 0.153208
vt 0.159841 0.671364
vt 0.141798 0.140416
vt 0.142533 0.006424
vt 0.129165 0.708780
vt 0.109739 0.956830
vt 0.154490 0.956291
vt 0.260006 0.937783
vt 0.232919 0.140718
vt 0.834692 0.713639
vt 0.832413 0.006245
vt 0.834692 0.006245
vt 0.832413 0.713639
vt 0.830136 0.006245
vt 0.830136 0.713639
vt 0.827863 0.006245
vt 0.827863 0.713639
vt 0.825595 0.006245
vt 0.825595 0.713639
vt 0.823334 0.006245
vt 0.823334 0.713639
vt 0.821078 0.006245
vt 0.821078 0.713639
vt 0.818827 0.006245
vt 0.818827 0.713639
vt 0.816577 0.006245
vt 0.816577 0.713639
vt 0.814328 0.006245
vt 0.814328 0.713639
vt 0.812076 0.006245
vt 0.812076 0.713639
vt 0.809820 0.006245
vt 0.809820 0.713639
vt 0.807559 0.006245
vt 0.807559 0.713639
vt 0.805292 0.006245
vt 0.805292 0.713639
vt 0.803019 0.006245
vt 0.803019 0.713639
vt 0.800742 0.006245
vt 0.800742 0.713639
vt 0.798462 0.006245
vt 0.798462 0.713639
vt 0.796183 0.006245
vt 0.796183 0.713639
vt 0.793906 0.006245
vt 0.793906 0.713639
vt 0.791633 0.006245
vt 0.791633 0.713639
vt 0.789366 0.006245
vt 0.789366 0.713639
vt 0.787104 0.006245
vt 0.787104 0.713639
vt 0.784849 0.006245
vt 0.784849 0.713639
vt 0.782597 0.006245
vt 0.782597 0.713639
vt 0.780348 0.006245
vt 0.780348 0.713639
vt 0.778098 0.006245
vt 0.778098 0.713639
vt 0.775847 0.006245
vt 0.775847 0.713639
vt 0.773591 0.006245
vt 0.773591 0.713639
vt 0.771329 0.006245
vt 0.771329 0.713639
vt 0.769062 0.006245
vt 0.769062 0.713639
vt 0.766789 0.006245
vt 0.783771 0.732248
vt 0.779061 0.747971
vt 0.763533 0.743158
vt 0.766789 0.713639
vt 0.764512 0.006245
vt 0.764512 0.713639
vt 0.762233 0.006245
vt 0.785071 0.772171
vt 0.774776 0.784909
vt 0.762233 0.774510
vt 0.507424 0.248565
vt 0.394388 0.452904
vt 0.348736 0.407252
vt 0.341065 0.006245
vt 0.348736 0.089877
vt 0.303085 0.044225
vt 0.591056 0.256236
vt 0.711763 0.452904
vt 0.553075 0.294216
vt 0.545404 0.210584
vt 0.704092 0.051897
vt 0.386717 0.051897
vt 0.276549 0.974006
vt 0.006245 0.941543
vt 0.132557 0.993755
vt 0.762672 0.741050
vt 0.762233 0.738813
vt 0.762233 0.736534
vt 0.762671 0.734299
vt 0.763532 0.732196
vt 0.764782 0.730304
vt 0.766372 0.728696
vt 0.768242 0.727435
vt 0.770320 0.726568
vt 0.772526 0.726129
vt 0.774776 0.726135
vt 0.776982 0.726585
vt 0.779060 0.727463
vt 0.780930 0.728734
vt 0.782521 0.730350
vt 0.784632 0.734356
vt 0.785071 0.736593
vt 0.785071 0.738872
vt 0.784632 0.741106
vt 0.783771 0.743210
vt 0.782522 0.745102
vt 0.780931 0.746710
vt 0.776983 0.748838
vt 0.774777 0.749277
vt 0.772528 0.749271
vt 0.770321 0.748821
vt 0.768243 0.747943
vt 0.766373 0.746672
vt 0.764782 0.745056
vt 0.762233 0.713639
vt 0.762233 0.772231
vt 0.762672 0.769994
vt 0.763532 0.767886
vt 0.764782 0.765988
vt 0.766373 0.764372
vt 0.768243 0.763101
vt 0.770321 0.762223
vt 0.772527 0.761772
vt 0.774776 0.761766
vt 0.776983 0.762205
vt 0.779061 0.763072
vt 0.780931 0.764334
vt 0.782521 0.765941
vt 0.783771 0.767833
vt 0.784632 0.769937
vt 0.785071 0.774450
vt 0.784632 0.776687
vt 0.783771 0.778795
vt 0.782521 0.780693
vt 0.780931 0.782309
vt 0.779061 0.783581
vt 0.776982 0.784458
vt 0.772527 0.784915
vt 0.770321 0.784476
vt 0.768243 0.783609
vt 0.766373 0.782348
vt 0.764782 0.780740
vt 0.763532 0.778848
vt 0.762672 0.776745
vt 0.749743 0.414923
vt 0.749743 0.097548
s 0
usemtl マテリアル
f 3/1/1 2/2/1 1/3/1
f 2/4/2 4/5/2 1/6/2
f 5/7/3 1/8/3 4/5/3
f 6/9/4 5/7/4 4/5/4
f 9/10/5 6/9/5 7/11/5
f 7/11/6 2/4/6 12/12/6
f 8/13/7 3/14/7 5/7/7
f 11/15/8 8/13/8 9/10/8
f 2/2/1 11/16/1 12/17/1
f 12/17/9 9/10/9 7/11/9
f 14/18/10 15/19/10 13/20/10
f 16/21/11 17/22/11 15/19/11
f 18/23/12 19/24/12 17/22/12
f 20/25/13 21/26/13 19/24/13
f 22/27/14 23/28/14 21/26/14
f 24/29/15 25/30/15 23/28/15
f 26/31/16 27/32/16 25/30/16
f 28/33/17 29/34/17 27/32/17
f 30/35/18 31/36/18 29/34/18
f 32/37/19 33/38/19 31/36/19
f 34/39/20 35/40/20 33/38/20
f 36/41/21 37/42/21 35/40/21
f 38/43/22 39/44/22 37/42/22
f 40/45/23 41/46/23 39/44/23
f 42/47/24 43/48/24 41/46/24
f 44/49/25 45/50/25 43/48/25
f 46/51/26 47/52/26 45/50/26
f 48/53/27 49/54/27 47/52/27
f 50/55/28 51/56/28 49/54/28
f 52/57/29 53/58/29 51/56/29
f 54/59/30 55/60/30 53/58/30
f 56/61/31 57/62/31 55/60/31
f 58/63/32 59/64/32 57/62/32
f 60/65/33 61/66/33 59/64/33
f 62/67/34 63/68/34 61/66/34
f 64/69/35 65/70/35 63/68/35
f 66/71/36 67/72/36 65/70/36
f 68/73/37 69/74/37 67/72/37
f 70/75/38 71/76/38 69/74/38
f 72/77/39 73/78/39 71/76/39
f 50/79/40 34/80/40 18/81/40
f 74/82/41 75/83/41 73/78/41
f 76/84/42 13/85/42 75/83/42
f 43/86/43 59/87/43 75/88/43
f 81/89/43 77/90/43 78/91/43
f 79/92/44 78/93/44 77/94/44
f 82/95/45 77/96/45 80/97/45
f 83/98/46 80/97/46 81/89/46
f 84/99/40 82/95/40 83/98/40
f 84/100/47 81/89/47 78/93/47
f 3/1/1 10/101/1 2/2/1
f 2/4/48 6/9/48 4/5/48
f 5/7/3 3/102/3 1/8/3
f 6/9/4 8/13/4 5/7/4
f 9/10/5 8/13/5 6/9/5
f 7/11/49 6/9/49 2/4/49
f 8/13/50 10/103/50 3/14/50
f 11/15/51 10/103/51 8/13/51
f 2/2/1 10/101/1 11/16/1
f 12/17/9 11/16/9 9/10/9
f 14/18/10 16/21/10 15/19/10
f 16/21/11 18/23/11 17/22/11
f 18/23/12 20/25/12 19/24/12
f 20/25/13 22/27/13 21/26/13
f 22/27/14 24/29/14 23/28/14
f 24/29/15 26/31/15 25/30/15
f 26/31/16 28/33/16 27/32/16
f 28/33/17 30/35/17 29/34/17
f 30/35/18 32/37/18 31/36/18
f 32/37/19 34/39/19 33/38/19
f 34/39/20 36/41/20 35/40/20
f 36/41/21 38/43/21 37/42/21
f 38/43/22 40/45/22 39/44/22
f 40/45/23 42/47/23 41/46/23
f 42/47/24 44/49/24 43/48/24
f 44/49/25 46/51/25 45/50/25
f 46/51/26 48/53/26 47/52/26
f 48/53/27 50/55/27 49/54/27
f 50/55/28 52/57/28 51/56/28
f 52/57/29 54/59/29 53/58/29
f 54/59/30 56/61/30 55/60/30
f 56/61/31 58/63/31 57/62/31
f 58/63/32 60/65/32 59/64/32
f 60/65/33 62/67/33 61/66/33
f 62/67/34 64/69/34 63/68/34
f 64/69/35 66/71/35 65/70/35
f 66/71/36 68/73/36 67/72/36
f 68/73/37 70/75/37 69/74/37
f 70/75/38 72/77/38 71/76/38
f 72/77/39 74/82/39 73/78/39
f 18/81/40 16/104/40 14/105/40
f 14/105/40 76/106/40 74/107/40
f 74/107/40 72/108/40 70/109/40
f 70/109/52 68/110/52 66/111/52
f 66/111/53 64/112/53 62/113/53
f 62/113/53 60/114/53 58/115/53
f 58/115/40 56/116/40 54/117/40
f 54/117/40 52/118/40 50/79/40
f 50/79/40 48/119/40 46/120/40
f 46/120/40 44/121/40 42/122/40
f 42/122/40 40/123/40 38/124/40
f 38/124/40 36/125/40 34/80/40
f 34/80/52 32/126/52 30/127/52
f 30/127/52 28/128/52 26/129/52
f 26/129/53 24/130/53 22/131/53
f 22/131/40 20/132/40 18/81/40
f 18/81/40 14/105/40 74/107/40
f 74/107/40 70/109/40 66/111/40
f 66/111/40 62/113/40 58/115/40
f 58/115/40 54/117/40 50/79/40
f 50/79/40 46/120/40 42/122/40
f 42/122/40 38/124/40 34/80/40
f 34/80/40 30/127/40 26/129/40
f 26/129/40 22/131/40 18/81/40
f 18/81/40 74/107/40 66/111/40
f 66/111/40 58/115/40 50/79/40
f 50/79/40 42/122/40 34/80/40
f 34/80/40 26/129/40 18/81/40
f 18/81/40 66/111/40 50/79/40
f 74/82/41 76/84/41 75/83/41
f 76/84/42 14/133/42 13/85/42
f 75/88/43 13/134/43 15/135/43
f 15/135/43 17/136/43 19/137/43
f 19/137/43 21/138/43 23/139/43
f 23/139/43 25/140/43 27/141/43
f 27/141/43 29/142/43 31/143/43
f 31/143/43 33/144/43 35/145/43
f 35/145/43 37/146/43 39/147/43
f 39/147/43 41/148/43 43/86/43
f 43/86/43 45/149/43 47/150/43
f 47/150/43 49/151/43 51/152/43
f 51/152/43 53/153/43 55/154/43
f 55/154/43 57/155/43 59/87/43
f 59/87/43 61/156/43 63/157/43
f 63/157/43 65/158/43 67/159/43
f 67/159/43 69/160/43 71/161/43
f 71/161/43 73/162/43 75/88/43
f 75/88/43 15/135/43 19/137/43
f 19/137/43 23/139/43 27/141/43
f 27/141/43 31/143/43 35/145/43
f 35/145/43 39/147/43 43/86/43
f 43/86/43 47/150/43 51/152/43
f 51/152/43 55/154/43 59/87/43
f 59/87/43 63/157/43 67/159/43
f 67/159/43 71/161/43 75/88/43
f 75/88/43 19/137/43 27/141/43
f 27/141/43 35/145/43 43/86/43
f 43/86/43 51/152/43 59/87/43
f 59/87/43 67/159/43 75/88/43
f 75/88/43 27/141/43 43/86/43
f 81/89/43 80/97/43 77/90/43
f 79/92/44 84/100/44 78/93/44
f 82/95/45 79/163/45 77/96/45
f 83/98/46 82/95/46 80/97/46
f 84/99/40 79/164/40 82/95/40
f 84/100/47 83/98/47 81/89/47
